Coordinates
version=1
nRows=36
nColumns=34
inDegrees=no

Units are S.I. units (second, meters, Newtons, ...)
If the header above contains a line with 'inDegrees', this indicates whether rotational values are in degrees (yes) or radians (no).

endheader
time	pelvis_tilt	pelvis_list	pelvis_rotation	pelvis_tx	pelvis_ty	pelvis_tz	hip_flexion_r	hip_adduction_r	hip_rotation_r	knee_angle_r	ankle_angle_r	subtalar_angle_r	mtp_angle_r	hip_flexion_l	hip_adduction_l	hip_rotation_l	knee_angle_l	ankle_angle_l	subtalar_angle_l	mtp_angle_l	lumbar_extension	lumbar_bending	lumbar_rotation	arm_flex_r	arm_add_r	arm_rot_r	elbow_flex_r	pro_sup_r	arm_flex_l	arm_add_l	arm_rot_l	elbow_flex_l	pro_sup_l
0.46	0.013134	-0.0437294	-0.0423931	0.407478	0.956314	-0.218384	-0.0634636	0.0551149	-0.318379	0.175572	0.403113	0.177394	0	0.449625	-0.139355	-0.263939	0.273846	0.0713851	0.110038	0	-0.139606	0.0634733	0.0648285	0.202196	-0.244092	-0.159171	0.815162	2.09	-0.316342	-0.0838002	-0.505563	0.381352	2.09
0.47	0.0125419	-0.0487786	-0.0498399	0.419133	0.954229	-0.218156	-0.0785624	0.0597661	-0.310265	0.17273	0.412944	0.178303	0	0.444655	-0.141462	-0.264533	0.218515	0.0758676	0.106784	0	-0.139315	0.0687694	0.0693056	0.214311	-0.247348	-0.14582	0.820491	2.09	-0.326631	-0.0795118	-0.514981	0.381117	2.09
0.48	0.0115535	-0.0535025	-0.05747	0.430873	0.951987	-0.218019	-0.0924551	0.0635015	-0.301955	0.171676	0.423155	0.179235	0	0.439991	-0.143526	-0.260195	0.16686	0.0797831	0.0938834	0	-0.138539	0.0737125	0.0735895	0.225766	-0.250126	-0.132583	0.825282	2.09	-0.336097	-0.0753092	-0.523777	0.380406	2.09
0.49	0.0102864	-0.0576187	-0.0652432	0.442693	0.949634	-0.217967	-0.105167	0.0659983	-0.293901	0.172541	0.433807	0.180659	0	0.435342	-0.145273	-0.248814	0.119095	0.0805433	0.0671151	0	-0.137422	0.0779405	0.0776305	0.236447	-0.252334	-0.119514	0.829544	2.09	-0.344629	-0.0713011	-0.532244	0.37927	2.09
0.5	0.00861716	-0.061073	-0.0732114	0.454585	0.947193	-0.217967	-0.116425	0.0671623	-0.286941	0.17554	0.445052	0.183644	0	0.431243	-0.147355	-0.233645	0.0769577	0.0784564	0.031182	0	-0.135859	0.081343	0.0817087	0.245926	-0.253813	-0.107453	0.833643	2.09	-0.352032	-0.0678511	-0.539331	0.377377	2.09
0.51	0.00659517	-0.0638441	-0.0814358	0.466529	0.944708	-0.217971	-0.126367	0.0671497	-0.28041	0.18032	0.456333	0.187124	0	0.429042	-0.150631	-0.224837	0.0442211	0.0789838	0.00315645	0	-0.133991	0.0837828	0.0860119	0.253973	-0.254423	-0.0968314	0.837757	2.09	-0.358133	-0.0651966	-0.544761	0.374669	2.09
0.52	0.00451617	-0.0657714	-0.0897515	0.478524	0.942241	-0.217979	-0.135512	0.0659353	-0.273879	0.186337	0.467027	0.190067	0	0.428816	-0.154341	-0.22103	0.022018	0.0813962	-0.0179477	0	-0.132175	0.0849957	0.0904114	0.260477	-0.254057	-0.0878862	0.841961	2.09	-0.362821	-0.063392	-0.549038	0.371346	2.09
0.53	0.00267641	-0.0667015	-0.0980587	0.490588	0.939847	-0.217993	-0.144343	0.0633646	-0.267557	0.193224	0.476934	0.192665	0	0.430151	-0.157853	-0.219209	0.0104742	0.0839949	-0.0358166	0	-0.130712	0.0847309	0.0948357	0.265312	-0.252708	-0.0806127	0.846356	2.09	-0.366059	-0.0624669	-0.552566	0.367613	2.09
0.54	0.00125069	-0.066608	-0.106074	0.502744	0.937574	-0.218025	-0.153396	0.0595841	-0.261004	0.200247	0.485236	0.193756	0	0.433084	-0.160995	-0.220486	0.0101006	0.0881421	-0.0465301	0	-0.129727	0.0829152	0.0990988	0.268288	-0.250325	-0.0753143	0.851079	2.09	-0.367836	-0.0625193	-0.555247	0.363611	2.09
0.55	0.000354549	-0.0650478	-0.113978	0.515025	0.935444	-0.218095	-0.162569	0.0536959	-0.256183	0.207981	0.493189	0.196926	0	0.436688	-0.163026	-0.222321	0.019016	0.0914561	-0.0548181	0	-0.1292	0.0790235	0.103343	0.269256	-0.247062	-0.07158	0.856206	2.09	-0.368235	-0.0632697	-0.559127	0.360075	2.09
0.56	6.81942e-06	-0.0624213	-0.120988	0.527476	0.933494	-0.218262	-0.172822	0.0469664	-0.249419	0.21443	0.497729	0.195202	0	0.440739	-0.163926	-0.224775	0.0357857	0.0940543	-0.0584424	0	-0.12899	0.0736407	0.106968	0.268076	-0.243016	-0.0695425	0.861626	2.09	-0.367317	-0.0653334	-0.559927	0.356016	2.09
0.57	0.000111436	-0.058176	-0.12729	0.540117	0.931725	-0.218557	-0.183593	0.038351	-0.242892	0.220581	0.500222	0.192346	0	0.444412	-0.162844	-0.227393	0.0573648	0.0932658	-0.0605789	0	-0.128815	0.066178	0.11009	0.264655	-0.238272	-0.0690028	0.867276	2.09	-0.36521	-0.0681384	-0.561355	0.352651	2.09
0.58	0.000557515	-0.0521744	-0.132625	0.552961	0.930156	-0.219026	-0.194736	0.02781	-0.236431	0.22641	0.50004	0.18752	0	0.447228	-0.159277	-0.230381	0.0810169	0.0872505	-0.0621258	0	-0.128414	0.0566021	0.112527	0.258924	-0.232897	-0.0700101	0.872988	2.09	-0.361957	-0.0717768	-0.562571	0.349845	2.09
0.59	0.00111252	-0.0446281	-0.136576	0.566013	0.928794	-0.219727	-0.205791	0.0155311	-0.231273	0.232404	0.497017	0.181859	0	0.44892	-0.152925	-0.231718	0.104123	0.0738888	-0.066507	0	-0.127437	0.04532	0.113699	0.25121	-0.227029	-0.0718752	0.878037	2.09	-0.357762	-0.0760754	-0.563404	0.347693	2.09
0.6	0.00160528	-0.0355382	-0.139136	0.579266	0.927661	-0.220678	-0.216131	0.00148675	-0.227551	0.239371	0.490977	0.175503	0	0.449365	-0.143677	-0.231743	0.125022	0.0530667	-0.0739967	0	-0.12568	0.0324406	0.11363	0.241584	-0.220731	-0.0745485	0.88217	2.09	-0.352639	-0.0809763	-0.563542	0.346156	2.09
0.61	0.0018624	-0.0251873	-0.140303	0.592712	0.92678	-0.221888	-0.225091	-0.0140358	-0.225234	0.248237	0.481602	0.168424	0	0.448721	-0.131897	-0.230773	0.143177	0.0265981	-0.0837132	0	-0.122991	0.0183819	0.112278	0.230254	-0.214084	-0.0777756	0.884998	2.09	-0.346671	-0.0863258	-0.562765	0.345308	2.09
0.62	0.00173526	-0.0140032	-0.140175	0.606341	0.926173	-0.223351	-0.231967	-0.0306083	-0.223952	0.260043	0.468494	0.160325	0	0.447321	-0.118291	-0.229266	0.159069	-0.00214813	-0.094095	0	-0.119295	0.00370055	0.109699	0.217445	-0.20719	-0.0812911	0.886199	2.09	-0.339946	-0.0919255	-0.560922	0.345268	2.09
0.63	0.00110748	-0.00249342	-0.138913	0.620133	0.925858	-0.225052	-0.236041	-0.0477265	-0.223052	0.275858	0.451169	0.150619	0	0.445623	-0.103739	-0.227744	0.173888	-0.0290393	-0.103453	0	-0.114593	-0.0109849	0.106028	0.203389	-0.200173	-0.0848586	0.885534	2.09	-0.33253	-0.0975588	-0.557929	0.346127	2.09
0.64	-8.94472e-05	0.00885109	-0.136673	0.634052	0.925848	-0.226973	-0.236608	-0.0648982	-0.221765	0.296715	0.42906	0.13846	0	0.444063	-0.0890724	-0.226682	0.188985	-0.0502505	-0.110433	0	-0.108969	-0.0251033	0.101411	0.188327	-0.193157	-0.0882924	0.882857	2.09	-0.324431	-0.103021	-0.553764	0.347899	2.09
0.65	-0.00185056	0.0196505	-0.13355	0.64805	0.92615	-0.229103	-0.233029	-0.0817364	-0.21949	0.323536	0.401559	0.122892	0	0.442863	-0.0748735	-0.2264	0.205285	-0.0631996	-0.114223	0	-0.102614	-0.0382346	0.0959231	0.172525	-0.186243	-0.0914629	0.878107	2.09	-0.315592	-0.108145	-0.548465	0.350521	2.09
0.66	-0.00419832	0.029313	-0.129669	0.662054	0.926773	-0.231389	-0.225004	-0.0963385	-0.210195	0.355892	0.364791	0.0935818	0	0.442135	-0.0620662	-0.228035	0.223306	-0.0659991	-0.112542	0	-0.0957505	-0.0497842	0.0897654	0.156211	-0.179489	-0.0944281	0.871314	2.09	-0.305831	-0.112924	-0.541515	0.353672	2.09
0.67	-0.00657616	0.038817	-0.12461	0.676036	0.927713	-0.233951	-0.211821	-0.113189	-0.209889	0.397243	0.326693	0.0747737	0	0.440624	-0.0486972	-0.228898	0.24116	-0.0618369	-0.110259	0	-0.0890274	-0.0607698	0.0821339	0.139822	-0.172952	-0.0967841	0.862562	2.09	-0.295213	-0.117006	-0.534703	0.357964	2.09
0.68	-0.00929072	0.0474785	-0.118598	0.689916	0.928943	-0.236685	-0.193575	-0.128678	-0.205571	0.445062	0.279065	0.0436457	0	0.438557	-0.0360969	-0.231593	0.258715	-0.0498769	-0.10244	0	-0.0823471	-0.0705266	0.0735089	0.123382	-0.166598	-0.098956	0.852045	2.09	-0.283522	-0.120731	-0.526269	0.362798	2.09
0.69	-0.0116448	0.0556933	-0.111472	0.703666	0.930461	-0.239627	-0.171024	-0.144379	-0.202317	0.499345	0.223556	0.00647677	0	0.434495	-0.0232161	-0.234261	0.274021	-0.0335893	-0.0921964	0	-0.0766016	-0.0795343	0.0635548	0.107185	-0.160474	-0.100862	0.840077	2.09	-0.270738	-0.123975	-0.517172	0.36869	2.09
0.7	-0.0135969	0.0636739	-0.103297	0.717257	0.932203	-0.242758	-0.14461	-0.160674	-0.200504	0.558924	0.159529	-0.0377912	0	0.428125	-0.00971685	-0.236443	0.286113	-0.015108	-0.0803725	0	-0.0718855	-0.0880323	0.0523758	0.0912565	-0.15459	-0.102648	0.826973	2.09	-0.256909	-0.126884	-0.507116	0.375814	2.09
0.71	-0.0151327	0.0712592	-0.0942844	0.730658	0.934091	-0.246021	-0.11513	-0.177038	-0.199027	0.621711	0.085493	-0.0922858	0	0.419494	0.00401389	-0.238507	0.29494	0.0048692	-0.066224	0	-0.0682764	-0.0958794	0.0403006	0.0755919	-0.14899	-0.104416	0.813063	2.09	-0.242058	-0.129626	-0.495731	0.384273	2.09
0.72	-0.0160697	0.0787595	-0.0844698	0.743862	0.936052	-0.24941	-0.0838528	-0.194629	-0.200191	0.685818	0.00499375	-0.151774	0	0.40827	0.0188489	-0.23775	0.299742	0.0233209	-0.054734	0	-0.0659556	-0.103417	0.027395	0.0601829	-0.1437	-0.106182	0.798674	2.09	-0.22626	-0.132308	-0.48316	0.394281	2.09
0.73	-0.0164839	0.0858185	-0.0741155	0.756846	0.938016	-0.252848	-0.0518319	-0.21252	-0.202596	0.748728	-0.0797454	-0.216643	0	0.394861	0.034149	-0.234149	0.301164	0.0402016	-0.0460087	0	-0.0648605	-0.110299	0.0140564	0.0450254	-0.138752	-0.107957	0.783989	2.09	-0.209492	-0.135115	-0.469002	0.405664	2.09
0.74	-0.01642	0.0921702	-0.0634887	0.769595	0.93993	-0.256261	-0.0199748	-0.230093	-0.205762	0.808519	-0.163066	-0.283928	0	0.379642	0.0493386	-0.227796	0.299895	0.0555522	-0.0402287	0	-0.0649252	-0.116284	0.000617871	0.0301891	-0.134134	-0.109743	0.769036	2.09	-0.191738	-0.13819	-0.453071	0.418185	2.09
0.75	-0.0159637	0.097579	-0.0529326	0.782098	0.941768	-0.259575	0.0112385	-0.246676	-0.209056	0.863949	-0.237509	-0.349955	0	0.36304	0.0637603	-0.219228	0.296667	0.0695936	-0.0370848	0	-0.0660083	-0.121166	-0.0125725	0.0158201	-0.129793	-0.111586	0.753657	2.09	-0.172995	-0.141626	-0.435324	0.431555	2.09
0.76	-0.0152503	0.101863	-0.0428773	0.794347	0.943518	-0.26272	0.0418359	-0.261601	-0.211669	0.914393	-0.295673	-0.411248	0	0.345537	0.0767364	-0.20943	0.292195	0.0826842	-0.0357193	0	-0.0678838	-0.124795	-0.0251338	0.0021081	-0.125642	-0.11362	0.737581	2.09	-0.153306	-0.145443	-0.415907	0.445536	2.09
0.77	-0.0144843	0.104853	-0.0338351	0.806336	0.945183	-0.265626	0.0723191	-0.274072	-0.212531	0.959501	-0.333305	-0.466081	0	0.327676	0.0876381	-0.199435	0.28709	0.0950856	-0.0353237	0	-0.0702333	-0.127027	-0.036604	-0.0107939	-0.121592	-0.116102	0.720591	2.09	-0.13275	-0.149608	-0.394987	0.459962	2.09
0.78	-0.0135639	0.106565	-0.0261631	0.818092	0.946791	-0.268266	0.102799	-0.284209	-0.211722	0.99925	-0.343112	-0.506352	0	0.309604	0.0960941	-0.190847	0.281885	0.10764	-0.0337141	0	-0.0730596	-0.12792	-0.046912	-0.0226839	-0.117617	-0.118977	0.70254	2.09	-0.111662	-0.153746	-0.374444	0.475382	2.09
0.79	-0.0130293	0.106687	-0.0204556	0.829596	0.948332	-0.270568	0.134574	-0.290219	-0.207235	1.03291	-0.335784	-0.539887	0	0.292177	0.101589	-0.183902	0.276892	0.119973	-0.0315609	0	-0.0756885	-0.127159	-0.0552757	-0.0337033	-0.113679	-0.122745	0.683617	2.09	-0.0901206	-0.158085	-0.352639	0.491331	2.09
0.8	-0.0127108	0.105236	-0.016871	0.840883	0.949845	-0.272537	0.167489	-0.292151	-0.199559	1.06023	-0.312079	-0.561448	0	0.275247	0.104176	-0.179043	0.272134	0.132221	-0.0283839	0	-0.0782439	-0.124779	-0.0617219	-0.0438846	-0.109827	-0.127383	0.664137	2.09	-0.0685083	-0.162321	-0.330933	0.508348	2.09
0.81	-0.0125362	0.102215	-0.0154172	0.851987	0.951359	-0.274185	0.201278	-0.289825	-0.189132	1.08082	-0.277143	-0.570187	0	0.258676	0.104023	-0.176235	0.267463	0.144247	-0.0243805	0	-0.0807774	-0.120778	-0.0663393	-0.0533284	-0.106121	-0.132863	0.644484	2.09	-0.0471705	-0.166317	-0.30989	0.526733	2.09
